<svg width="102" height="75" viewBox="0 0 102 75" fill="none" xmlns="http://www.w3.org/2000/svg">
<path d="M10.0656 31.9408V9.1651H0V59.6411H10.0656V51.7414C13.7475 56.5633 19.8803 60.1199 26.8111 60.1199C28.5096 60.1199 30.1625 59.9261 31.747 59.5727V49.8149C30.2993 49.9859 28.6578 50.0771 26.8111 50.0771C21.2027 50.0771 16.4606 46.3039 16.4606 41.8354C16.4606 37.3669 21.2027 33.5937 26.8111 33.5937C28.6578 33.5937 30.2879 33.6849 31.747 33.8559V24.1095C30.1625 23.7562 28.5096 23.5624 26.8111 23.5624C19.8803 23.5624 13.7589 27.119 10.0656 31.9295V31.9408Z" fill="#EE3048"/>
<path d="M54.888 17.0533C59.5845 17.0533 63.4146 13.2232 63.4146 8.52666C63.4146 3.83016 59.5959 0 54.888 0C50.1801 0 46.3613 3.81876 46.3613 8.52666C46.3613 13.2346 50.1915 17.0533 54.888 17.0533Z" fill="#EE3048"/>
<path d="M54.8873 23.5622C44.8103 23.5622 36.6143 31.7583 36.6143 41.8352C36.6143 41.8694 36.6143 41.9036 36.6143 41.9492V74.9273H46.6798V58.1704C49.1535 59.4129 51.9349 60.1197 54.8873 60.1197C64.9643 60.1197 73.1603 51.9236 73.1603 41.8466C73.1603 31.7697 64.9643 23.5736 54.8873 23.5736V23.5622ZM54.8873 50.0427C50.3618 50.0427 46.6798 46.3607 46.6798 41.8352C46.6798 37.3097 50.3618 33.6278 54.8873 33.6278C59.4128 33.6278 63.0948 37.3097 63.0948 41.8352C63.0948 46.3607 59.4128 50.0427 54.8873 50.0427Z" fill="#EE3048"/>
<path d="M96.9727 33.6053C98.8194 33.6053 100.449 33.6965 101.909 33.8675V24.1211C100.336 23.7677 98.6826 23.5739 96.9727 23.5739C85.733 23.5739 76.5908 31.77 76.5908 41.8469C76.5908 51.9239 85.733 60.12 96.9727 60.12C98.6712 60.12 100.324 59.9262 101.909 59.5728V49.8264C100.461 49.9974 98.8194 50.0886 96.9727 50.0886C91.3643 50.0886 86.6222 46.3155 86.6222 41.8469C86.6222 37.3784 91.3643 33.6053 96.9727 33.6053Z" fill="#EE3048"/>
</svg>
